<?xml version="1.0" encoding="UTF-8"?>
<svg version="1.1" viewBox="0 0 2048 735" width="401" height="144" xmlns="http://www.w3.org/2000/svg">
<path transform="translate(731,204)" d="m0 0h19l27 1 2 6 14 74 9 45 2 6 1-1 4-28 9-48 8-43 2-10 1-1h47l4 74 1 26 4-10 8-15 9-11 10-9 16-8 13-3h26l16 4 13 7 10 9 6 7 8 15 7 22 7-20 9-16 11-12 13-9 13-5 9-2h26l16 4 13 7 10 9 6 7 8 15 5 17 1 9v27l-1 1-8 1h-97l6 19 6 9 8 7 10 4 4 1h16l13-3 16-8 5-1 12 16 4 6-5 5-14 8-16 6-10 2-10 1h-16l-14-2-14-5-9-5-10-8-8-9-8-14-5-15-3-15-9 1h-97l5 17 7 12 8 6 10 4 4 1h15l13-3 12-5 7-4 4 1 9 13 5 6v4l-14 9-17 7-13 3-10 1h-16l-14-2-14-5-12-7-12-11-9-13-3-6 2 26v12l-1 1h-36l-1-1-2-41-2-55v-64l-13 66-11 57-2 2h-33l-3-9-10-47-10-46-6-22 2 23v48l-2 65-1 23-1 1h-36l-1-5 3-50 8-138zm219 73-10 3-6 4-6 7-4 8-4 16v4l3 1h62l1-1v-9l-3-12-5-10-4-5-10-5-5-1zm149 0-9 2-8 5-6 7-5 11-3 13v4l4 1h61l1-1v-10l-3-12-6-11-8-6-5-2z" fill="#FEFEFE"/>
<path transform="translate(1256,249)" d="m0 0h23l13 4 10 7 7 7 8 14 5 17 3 21v26l-4 23-4 12-7 13-9 11-11 8-10 4-13 2h-9l-14-3-10-5-9-7v71l-5 2-30 3h-7v-226h36l1 1v16l5-3 12-10 12-6zm-6 30-11 4-8 7-6 8-1 7v65l3 6 11 8 9 3h10l12-6 6-7 4-10 3-16v-32l-3-17-6-12-7-6-7-2z" fill="#FEFEFE"/>
<path transform="translate(227,16)" d="m0 0 60 1 2 1-1 7-5 9-3 2h-64l-17 2-16 5-9 7-7 11-4 12-2 15v31l4 71v49l-4 29-6 22-9 21-8 13-10 13-16 16-14 9h-2l3 3 15 9 11 10 5 5 8 9 11 18 8 19 5 19 3 22 1 11v44l-4 57v53l2 12 5 13 7 10 9 8 12 6 15 3h71l6 2 1 5-4 9-3 4-41 1h-34l-14-2-14-5-12-7-8-8-7-12-5-15-3-19v-47l4-59v-44l-3-23-4-18-5-15-11-21-11-14-11-10-13-8-13-6-12-3-26-2-2-4v-7l4-8 5-4h21l19-5 15-8 13-10 9-10 7-11 8-18 5-18 3-16 2-28v-13l-2-38-3-53v-29l2-15 4-15 5-12 8-12 6-7 12-9 11-5 16-4z" fill="#FEFEFE"/>
<path transform="translate(1764,17)" d="m0 0h80l14 3 16 8 11 9 9 11 7 14 4 13 3 19v45l-4 55v51l3 22 5 20 6 16 8 14 11 12 9 8 13 8 12 5 13 3h20l6 3 4 9v9l-2 2-19 1-15 3-13 5-11 6-10 8-10 10-9 13-8 15-7 19-5 22-2 21v27l2 42 3 52v17l-2 20-4 17-7 14-9 10-10 7-9 4-17 4-10 1h-35l-36-1-6-10v-7l2-2 6-1h69l15-3 9-4 9-7 7-8 6-12 4-16 1-9v-33l-5-84v-32l3-24 4-18 6-17 10-19 10-14 9-10 9-8 15-9 3-3-12-8-13-12-9-10-9-13-9-17-7-18-5-21-3-20-1-11v-38l4-68v-43l-2-14-4-10-6-9-8-7-10-4-14-3-11-1h-65l-4-5-4-9z" fill="#FEFEFE"/>
<path transform="translate(1031,475)" d="m0 0h24l10 3 8 6 6 12 2 9v11l-3 16-6 10-6 5-9 3-12 1h-14l-1-1v-74zm7 6-1 1v61l2 2h10l10-2 6-4 5-8 3-11v-15l-2-9-6-9-6-4-11-2z" fill="#FEFEFE"/>
<path transform="translate(957,469)" d="m0 0h7l1 1v79l-4 2-4-3-5 2-6 2h-12l-6-3-5-6-4-11v-19l3-9 6-8 4-3 3-1h12l8 3 1 1zm-20 29-7 6-3 9v18l3 9 6 5 3 1h7l9-5 2-6v-30l-7-6-3-1z" fill="#FEFEFE"/>
<path transform="translate(1362,492)" d="m0 0 5 2 2 5 8-6 2-1h14l5 3 5 6 4 10v18l-3 10-6 9-8 4h-13l-9-5v26l-2 2-4-1-1-6v-74zm19 6-8 4-4 6-1 7v22l4 5 9 4 9-1 5-5 3-6 1-5v-16l-4-10-5-5z" fill="#FEFEFE"/>
<path transform="translate(828,492)" d="m0 0h13l8 4 6 8 3 10v9l-2 2h-38l2 9 5 8 7 3h8l10-4h3v5l-5 4-7 2h-14l-9-6-6-10-3-10v-8l3-10 5-8 8-7zm3 6-6 3-5 6-2 5v5l1 1 10 1h15l6-2v-7l-5-8-8-4z" fill="#FEFEFE"/>
<path transform="translate(1212,492)" d="m0 0h14l7 4 5 6 4 11v10l-2 2h-38l2 9 4 7 8 4h8l12-4h3l-2 5-5 4-7 2h-13l-7-4-7-8-4-11v-13l4-11 6-8zm4 6-7 3-5 6-2 9 2 2 10 1h16l4-1v-9l-4-6-6-4z" fill="#FEFEFE"/>
<path transform="translate(1432,492)" d="m0 0h13l8 4 4 5 4 10 1 12-2 2h-38l2 10 4 6 4 3 10 1 16-4-1 5-5 4-7 2h-13l-8-4-6-7-4-11v-14l3-11 7-9zm2 6-7 4-4 7-1 8 1 1 7 1h20l4-2-1-9-6-8-5-2z" fill="#FEFEFE"/>
<path transform="translate(1102,492)" d="m0 0h14l6 3 6 7 4 9 1 5v7l-5 2h-36l2 8 4 7 5 4 3 1h8l9-3 5-1 1 2-4 6-9 3h-13l-8-4-6-7-5-11v-14l4-11 6-8zm4 6-7 3-4 5-3 8 1 4 8 1h20l3-1 1-6-4-9-6-4z" fill="#FEFEFE"/>
<path transform="translate(662,492)" d="m0 0h15l8 5 6 8 3 12v8l-2 10-4 8-8 7-7 2h-12l-9-6-5-7-3-10v-11l2-9 5-9 8-7zm1 6-7 6-3 7-1 14 2 10 4 7 7 4h8l7-4 4-7 1-5v-17l-3-8-5-5-3-2z" fill="#FEFEFE"/>
<path transform="translate(1321,492)" d="m0 0h15l8 5 4 5 4 9 1 5v10l-3 12-6 8-5 4-5 2h-15l-6-4-6-7-4-12v-14l4-11 5-7zm1 6-6 4-4 8-1 5v14l4 11 6 5 3 1h8l6-4 4-5 2-6v-19l-5-10-7-4z" fill="#FEFEFE"/>
<path transform="translate(703,492)" d="m0 0 5 2 2 5 10-6 3-1h13l5 3 3 5 1 5v45l-4 1-3-2-1-42-2-6-1-2-9-1-10 5-4 5-1 40-1 2h-6l-1-1v-56z" fill="#FEFEFE"/>
<path transform="translate(542,475)" d="m0 0h41l4 2-2 4h-35v29h30l2 2-1 4-31 1v33h-8z" fill="#FEFEFE"/>
<path transform="translate(893,491)" d="m0 0 10 2 5 5 2 5v47l-5 1-2-2-1-42-4-8-8-1-8 3-6 7-1 10v31l-2 2-5-1-1-3v-53l3-2 4 4v3l10-6z" fill="#FEFEFE"/>
<path transform="translate(632,490)" d="m0 0h5l1 1v19l-4 3-3-5-1-7-4-2-7 4-6 8-2 9v24l12 3v3l-3 1h-25l-3-3 2-2 8-1v-46l-8-1-1-5 5-2 3 1 7 1 1 11h2l2-4 7-6 7-3z" fill="#FEFEFE"/>
<path transform="translate(1510,490)" d="m0 0 7 1v15l-2 5-4 1-3-11-1-1h-6l-5 4-5 8-1 5-1 14v14l11 1 2 3-1 1-17 1h-11l-2-1 1-3 8-4 1-39-2-4-7-2-1-3 1-2 3-1h8l4 4 2 7 4-5 9-6z" fill="#FEFEFE"/>
<path transform="translate(770,479)" d="m0 0h5l1 2v12l19-1 1 1v5l-1 1h-19l1 39 2 5 3 2h12l5-2 2 2-1 4-3 2-5 1h-11l-8-4-4-8-1-4v-37h-11l-2-2 1-4h12v-11z" fill="#FEFEFE"/>
<path transform="translate(1139,491)" d="m0 0 5 1 5 10 12 36v3h2l2-5 9-24 8-19 3-2h4l-1 6-17 45-4 8-1 1h-5l-4-4-9-24-9-27z" fill="#FEFEFE"/>
<path transform="translate(1248,469)" d="m0 0h23l1 1 1 67 2 7 2 1h12l4-1 2 4-4 3-5 1h-9l-7-3-3-3-2-7-1-63-17-1-1-4z" fill="#FEFEFE"/>
</svg>
